<svg width="196" height="177" viewBox="0 0 196 177" fill="none" xmlns="http://www.w3.org/2000/svg">
<g clip-path="url(#clip0_5033_971)">
<path d="M208.954 -10.5933H-17.8281V276.472H208.954V-10.5933Z" fill="white"/>
<path d="M121 67.2543C109.809 67.2543 98.4292 66.8125 87.7729 63.8405C77.1166 60.8685 67.7722 55.3127 59.1775 48.8065C53.5682 44.5627 48.4676 41.2025 41.1982 41.7112C34.0858 42.0864 27.2836 44.7434 21.7999 49.2884C12.5493 57.3208 13.955 72.3549 17.6499 82.8907C23.2056 98.7547 40.1273 109.773 54.5053 116.962C71.119 125.262 89.3124 130.081 107.667 132.852C123.731 135.289 144.308 137.056 158.204 126.587C170.975 116.962 174.483 94.9929 171.35 80.1463C170.592 75.7627 168.259 71.8068 164.79 69.0214C155.821 62.475 142.447 66.8527 132.366 67.0669C128.618 67.1472 124.776 67.2409 121 67.2543Z" fill="#F3F4F6"/>
<path d="M156.168 100.281V106.038" stroke="#D1D5DB" stroke-width="1.33874" stroke-linecap="round" stroke-linejoin="round"/>
<path d="M153.291 103.159H159.048" stroke="#D1D5DB" stroke-width="1.33874" stroke-linecap="round" stroke-linejoin="round"/>
<path d="M55.4551 67.6155V73.372" stroke="#D1D5DB" stroke-width="1.33874" stroke-linecap="round" stroke-linejoin="round"/>
<path d="M52.5762 70.4941H58.3327" stroke="#D1D5DB" stroke-width="1.33874" stroke-linecap="round" stroke-linejoin="round"/>
<path d="M91.0659 43.1837C91.7904 43.1837 92.3778 42.5964 92.3778 41.8718C92.3778 41.1472 91.7904 40.5598 91.0659 40.5598C90.3413 40.5598 89.7539 41.1472 89.7539 41.8718C89.7539 42.5964 90.3413 43.1837 91.0659 43.1837Z" fill="#E5E7EB"/>
<path d="M42.1499 37.6952C42.8744 37.6952 43.4618 37.1078 43.4618 36.3833C43.4618 35.6587 42.8744 35.0713 42.1499 35.0713C41.4253 35.0713 40.8379 35.6587 40.8379 36.3833C40.8379 37.1078 41.4253 37.6952 42.1499 37.6952Z" fill="#E5E7EB"/>
<path d="M99.2307 158.837C126.328 158.837 148.295 157.471 148.295 155.785C148.295 154.099 126.328 152.733 99.2307 152.733C72.133 152.733 50.166 154.099 50.166 155.785C50.166 157.471 72.133 158.837 99.2307 158.837Z" fill="#F3F4F6"/>
<path d="M79.0303 70.9624H73.9297V106.225H79.0303V70.9624Z" fill="#E5E7EB"/>
<path d="M73.8279 73.5308L76.2578 78.0154L105.743 62.0394L103.313 57.5548L73.8279 73.5308Z" fill="#E5E7EB"/>
<path d="M72.2963 103.173H80.1011C84.0813 103.173 87.8984 104.754 90.7129 107.568C93.5273 110.383 95.1084 114.2 95.1084 118.18V119.278H57.2891V118.18C57.2891 114.2 58.8702 110.383 61.6846 107.568C64.499 104.754 68.3161 103.173 72.2963 103.173Z" fill="white" stroke="#D1D5DB" stroke-width="1.33874" stroke-linecap="round" stroke-linejoin="round"/>
<path d="M100.262 119.452H52.1348" stroke="#D1D5DB" stroke-width="1.33874" stroke-linecap="round" stroke-linejoin="round"/>
<path d="M76.7944 83.9483C81.6816 83.9483 85.6434 79.9865 85.6434 75.0993C85.6434 70.2121 81.6816 66.2502 76.7944 66.2502C71.9072 66.2502 67.9453 70.2121 67.9453 75.0993C67.9453 79.9865 71.9072 83.9483 76.7944 83.9483Z" fill="white" stroke="#D1D5DB" stroke-width="1.33874" stroke-linecap="round" stroke-linejoin="round"/>
<path d="M126.018 108.822C125.791 108.742 124.077 108.902 123.863 108.822C122.323 108.246 121.775 110.161 120.356 109.371C111.317 104.72 104.294 96.9219 100.609 87.4484C96.9252 77.9748 96.8351 67.4806 100.356 57.9451C103.877 48.4097 110.766 40.4924 119.723 35.6867C128.68 30.881 139.086 29.5192 148.978 31.8581C150.667 32.2666 152.33 32.7762 153.958 33.3843C154.266 33.4914 153.516 35.1514 153.811 35.2585L126.018 108.822Z" fill="white" stroke="#D1D5DB" stroke-width="1.33874" stroke-linecap="round" stroke-linejoin="round"/>
<path d="M152.648 77.1208C146.195 94.4039 136.664 107.55 128.939 110.924C127.905 111.411 126.787 111.698 125.646 111.767C124.782 111.825 123.916 111.702 123.102 111.406C122.462 111.168 121.868 110.819 121.348 110.375C121.055 110.139 120.786 109.875 120.545 109.585C115.19 103.467 116.06 85.4879 123.223 66.2101C130.318 47.2268 141.189 33.1834 149.234 31.7376C149.732 31.635 150.239 31.5901 150.747 31.6037C151.428 31.6182 152.102 31.7449 152.742 31.9786C153.655 32.3268 154.475 32.8812 155.138 33.5984C155.854 34.3605 156.45 35.2272 156.905 36.1688C160.507 43.7862 159.074 59.9582 152.648 77.1208Z" fill="#E5E7EB"/>
<path d="M124.012 65.3933L165.834 80.6683" stroke="#D1D5DB" stroke-width="1.33874" stroke-linecap="round" stroke-linejoin="round"/>
<path d="M163.423 85.2868C166.646 85.2868 169.26 82.6736 169.26 79.4499C169.26 76.2263 166.646 73.613 163.423 73.613C160.199 73.613 157.586 76.2263 157.586 79.4499C157.586 82.6736 160.199 85.2868 163.423 85.2868Z" fill="white" stroke="#D1D5DB" stroke-width="1.33874" stroke-linecap="round" stroke-linejoin="round"/>
<path d="M65.6536 48.4048C65.6536 49.1408 65.5085 49.8696 65.2264 50.5494C64.9443 51.2292 64.5309 51.8467 64.0099 52.3665C63.4889 52.8863 62.8704 53.2982 62.1899 53.5786C61.5094 53.859 60.7803 54.0025 60.0443 54.0007H46.2955C45.2303 54.0007 44.2088 53.5776 43.4556 52.8244C42.7024 52.0712 42.2793 51.0497 42.2793 49.9845C42.2793 48.9194 42.7024 47.8978 43.4556 47.1446C44.2088 46.3914 45.2303 45.9683 46.2955 45.9683C46.8226 45.9691 47.3449 46.069 47.8351 46.2628C47.7812 46.003 47.7543 45.7383 47.7547 45.473C47.7642 44.429 48.1488 43.4233 48.8382 42.6393C49.5276 41.8554 50.4759 41.3454 51.51 41.2026C52.5442 41.0597 53.5952 41.2934 54.4714 41.8611C55.3475 42.4288 55.9903 43.2926 56.2825 44.2949C57.3014 43.3401 58.648 42.813 60.0443 42.8223C60.7792 42.8205 61.5072 42.9635 62.1868 43.2431C62.8664 43.5227 63.4843 43.9334 64.0052 44.4518C64.526 44.9702 64.9397 45.5861 65.2226 46.2644C65.5054 46.9426 65.6519 47.6699 65.6536 48.4048Z" fill="white" stroke="#D1D5DB" stroke-width="1.33874" stroke-linecap="round" stroke-linejoin="round"/>
</g>
<defs>
<clipPath id="clip0_5033_971">
<rect width="195.456" height="175.375" fill="white" transform="translate(0.271484 0.812744)"/>
</clipPath>
</defs>
</svg>
