<svg width="196" height="177" viewBox="0 0 196 177" fill="none" xmlns="http://www.w3.org/2000/svg">
<g clip-path="url(#clip0_5033_1023)">
<path d="M202.435 -57.6922H-24.7246V229.851H202.435V-57.6922Z" fill="white"/>
<path d="M88.8532 131.853C89.579 131.853 90.1674 131.265 90.1674 130.539C90.1674 129.813 89.579 129.225 88.8532 129.225C88.1274 129.225 87.5391 129.813 87.5391 130.539C87.5391 131.265 88.1274 131.853 88.8532 131.853Z" fill="#E5E7EB"/>
<path d="M50.6777 32.9172V38.6834" stroke="#D1D5DB" stroke-width="1.34097" stroke-linecap="round" stroke-linejoin="round"/>
<path d="M47.7812 35.8H53.5608" stroke="#D1D5DB" stroke-width="1.34097" stroke-linecap="round" stroke-linejoin="round"/>
<path d="M116.317 69.284C105.093 69.284 93.6678 68.8281 82.9803 65.8512C72.494 62.9413 62.8658 57.2958 54.2837 50.7653C48.665 46.5144 43.5559 43.1218 36.2611 43.6314C29.1245 44.0175 22.3 46.6825 16.7903 51.2346C7.51078 59.3609 8.90538 74.4199 12.6199 84.9599C18.1983 100.877 35.1749 111.967 49.6037 119.141C66.2719 127.469 84.5895 132.309 102.947 135.085C119.039 137.539 139.717 139.309 153.663 128.809C166.469 119.141 169.982 97.0957 166.844 82.2109C166.083 77.8137 163.742 73.8461 160.26 71.0541C151.262 64.47 137.839 68.8683 127.728 69.0829C123.974 69.1633 120.152 69.2572 116.317 69.284Z" fill="#F3F4F6"/>
<path d="M98.1599 25.059C98.8856 25.059 99.474 24.4706 99.474 23.7448C99.474 23.019 98.8856 22.4307 98.1599 22.4307C97.4341 22.4307 96.8457 23.019 96.8457 23.7448C96.8457 24.4706 97.4341 25.059 98.1599 25.059Z" fill="#E5E7EB"/>
<path d="M29.877 127.388V133.154" stroke="#D1D5DB" stroke-width="1.34097" stroke-linecap="round" stroke-linejoin="round"/>
<path d="M26.9961 130.271H32.7622" stroke="#D1D5DB" stroke-width="1.34097" stroke-linecap="round" stroke-linejoin="round"/>
<path d="M89.389 161.18C116.576 161.18 138.616 159.806 138.616 158.11C138.616 156.414 116.576 155.039 89.389 155.039C62.2017 155.039 40.1621 156.414 40.1621 158.11C40.1621 159.806 62.2017 161.18 89.389 161.18Z" fill="#F3F4F6"/>
<path d="M128.961 125.216H43.9302C43.3611 125.215 42.799 125.091 42.2825 124.852C41.7661 124.613 41.3078 124.265 40.9393 123.831C40.5707 123.398 40.3007 122.889 40.148 122.341C39.9953 121.793 39.9635 121.218 40.0548 120.656L50.93 54.7077C51.077 53.7899 51.5467 52.9546 52.2547 52.3523C52.9627 51.7501 53.8625 51.4203 54.792 51.4224H139.823C140.391 51.4224 140.953 51.5463 141.469 51.7855C141.985 52.0246 142.443 52.3733 142.81 52.8072C143.178 53.2411 143.446 53.7498 143.597 54.298C143.748 54.8462 143.778 55.4208 143.685 55.9817L132.863 121.93C132.712 122.854 132.236 123.693 131.52 124.296C130.804 124.898 129.896 125.225 128.961 125.216Z" fill="#D1D5DB"/>
<path d="M130.008 49.6978L79.5356 27.1627C78.0479 26.4985 76.3033 27.166 75.6391 28.6538L59.6425 64.4815C58.9783 65.9693 59.6459 67.7138 61.1336 68.3781L111.606 90.9131C113.094 91.5774 114.838 90.9098 115.502 89.4221L131.499 53.5943C132.163 52.1066 131.496 50.362 130.008 49.6978Z" fill="white" stroke="#D1D5DB" stroke-width="1.34097" stroke-linecap="round" stroke-linejoin="round"/>
<path d="M86.9375 56.6383C88.266 54.7742 90.1982 53.4267 92.4066 52.8242C94.615 52.2217 96.9638 52.4012 99.055 53.3323C101.146 54.2635 102.851 55.889 103.881 57.9334C104.911 59.9778 105.202 62.3154 104.705 64.55" stroke="#D1D5DB" stroke-width="0.911857" stroke-linecap="round" stroke-linejoin="round"/>
<path d="M111.071 54.6137C111.833 54.6137 112.452 53.9953 112.452 53.2325C112.452 52.4697 111.833 51.8513 111.071 51.8513C110.308 51.8513 109.689 52.4697 109.689 53.2325C109.689 53.9953 110.308 54.6137 111.071 54.6137Z" fill="#D1D5DB"/>
<path d="M91.0667 45.683C91.8296 45.683 92.4479 45.0647 92.4479 44.3019C92.4479 43.539 91.8296 42.9207 91.0667 42.9207C90.3039 42.9207 89.6855 43.539 89.6855 44.3019C89.6855 45.0647 90.3039 45.683 91.0667 45.683Z" fill="#D1D5DB"/>
<path d="M128.582 125.189H43.1355C42.0958 125.185 41.0999 124.77 40.3659 124.033C39.632 123.297 39.2199 122.299 39.2199 121.26V61.0101C39.2074 60.4875 39.2993 59.9675 39.4903 59.4808C39.6814 58.9941 39.9676 58.5505 40.3323 58.1758C40.6969 57.8011 41.1327 57.503 41.6141 57.2989C42.0954 57.0948 42.6127 56.9889 43.1355 56.9872H74.2593C74.9815 56.9899 75.689 57.1915 76.3041 57.5701C76.9192 57.9486 77.418 58.4893 77.7458 59.1328L82.1844 67.8222C82.511 68.4667 83.0096 69.0083 83.6249 69.3869C84.2403 69.7656 84.9484 69.9667 85.6709 69.9678H128.582C129.62 69.9678 130.616 70.3803 131.351 71.1146C132.085 71.849 132.497 72.8449 132.497 73.8834V121.26C132.497 122.299 132.085 123.297 131.351 124.033C130.617 124.77 129.622 125.185 128.582 125.189Z" fill="white" stroke="#D1D5DB" stroke-width="1.34097" stroke-linecap="round" stroke-linejoin="round"/>
<path d="M115.43 72.0195C110.493 72.0169 105.667 73.4782 101.562 76.2188C97.456 78.9593 94.2553 82.8558 92.3644 87.4156C90.4735 91.9754 89.9774 96.9935 90.9388 101.835C91.9002 106.677 94.2759 111.125 97.7655 114.616C101.255 118.108 105.702 120.486 110.543 121.45C115.384 122.414 120.402 121.92 124.963 120.032C129.524 118.144 133.422 114.945 136.165 110.841C138.908 106.737 140.372 101.911 140.372 96.9749C140.372 90.3587 137.744 84.0132 133.067 79.3335C128.39 74.6539 122.046 72.0231 115.43 72.0195Z" fill="white" stroke="#D1D5DB" stroke-width="1.34097" stroke-linecap="round" stroke-linejoin="round"/>
<path d="M133.186 115.078L139.837 121.729" stroke="#D1D5DB" stroke-width="1.34097" stroke-linecap="round" stroke-linejoin="round"/>
<path d="M139.083 118.498L137.017 120.659C136.091 121.628 136.125 123.165 137.094 124.091L155.027 141.233C155.996 142.16 157.532 142.125 158.458 141.156L160.525 138.995C161.451 138.026 161.416 136.489 160.447 135.563L142.515 118.421C141.546 117.494 140.01 117.529 139.083 118.498Z" fill="#D1D5DB"/>
<path d="M152.359 23.7446V29.5242" stroke="#D1D5DB" stroke-width="1.34097" stroke-linecap="round" stroke-linejoin="round"/>
<path d="M149.463 26.6416H155.242" stroke="#D1D5DB" stroke-width="1.34097" stroke-linecap="round" stroke-linejoin="round"/>
</g>
<defs>
<clipPath id="clip0_5033_1023">
<rect width="195.781" height="175.667" fill="white" transform="translate(0.109375 0.666748)"/>
</clipPath>
</defs>
</svg>
